<svg width="18" height="24" viewBox="0 0 18 24" fill="none" xmlns="http://www.w3.org/2000/svg">
<path d="M16.1537 -3.33786e-05C15.8544 -3.33786e-05 15.5551 0.123675 15.3419 0.364694L8.61502 7.97917L1.88814 0.364694C1.49624 -0.0789509 0.815797 -0.123741 0.367912 0.264447C-0.0799729 0.652637 -0.125192 1.32663 0.266707 1.77028L7.80323 10.3019C8.00779 10.5323 8.30279 10.6666 8.61287 10.6666C8.92294 10.6666 9.21794 10.5344 9.4225 10.3019L16.959 1.77028C17.3509 1.32663 17.3057 0.652637 16.8578 0.264447C16.6533 0.0874166 16.4013 -3.33786e-05 16.1494 -3.33786e-05H16.1537Z" fill="#DFFAFF"/>
<path d="M16.1537 13.3333C15.8544 13.3333 15.5551 13.457 15.3419 13.698L8.61502 21.3125L1.88814 13.698C1.49624 13.2544 0.815797 13.2096 0.367912 13.5978C-0.0799729 13.9859 -0.125192 14.6599 0.266707 15.1036L7.80323 23.6352C8.00779 23.8656 8.30279 23.9999 8.61287 23.9999C8.92294 23.9999 9.21794 23.8677 9.4225 23.6352L16.959 15.1036C17.3509 14.6599 17.3057 13.9859 16.8578 13.5978C16.6533 13.4207 16.4013 13.3333 16.1494 13.3333H16.1537Z" fill="#DFFAFF"/>
</svg>
